<svg version="1.2" baseProfile="tiny" xmlns="http://www.w3.org/2000/svg" viewBox="0 0 1190.6 841.9"><g fill="#C64C4C"><path d="M903.9 251.1L760.5 41.4C750 26 729 22.1 713.7 32.6c-15.4 10.5-19.3 31.5-8.8 46.9L822 250.8H368.5L485.7 79.5c10.5-15.4 6.6-36.4-8.8-46.9S440.5 26 430 41.4L286.6 251.1c-62.4 3.2-112.3 54.8-112.3 118 0 31.2 12.4 60.7 34.3 82.8l47.5 280.6c1.7 45.8 39.5 82.6 85.7 82.6h506.9c46.2 0 84-36.8 85.7-82.6L981.9 452c22-22.1 34.3-51.6 34.3-82.8 0-63.2-49.8-114.9-112.3-118.1zm25.6 157.5l-10 8-52 307.2-.5 5.6c0 10.1-8.2 18.3-18.3 18.3H341.8c-10.1 0-18.3-8.2-18.3-18.3L271 416.6l-10-8c-12.3-9.9-19.3-24.2-19.3-39.4 0-28.1 22.8-50.9 50.9-50.9h605.3c28 0 50.9 22.8 50.9 50.9 0 15.1-7.1 29.5-19.3 39.4z"/><path d="M758.5 406.4c-18.6 0-33.7 15.1-33.7 33.7v236.4c0 18.6 15.1 33.7 33.7 33.7s33.7-15.1 33.7-33.7V440.1c0-18.6-15.1-33.7-33.7-33.7zm-163.2 0c-18.6 0-33.7 15.1-33.7 33.7v236.4c0 18.6 15.1 33.7 33.7 33.7s33.7-15.1 33.7-33.7V440.1c0-18.6-15.1-33.7-33.7-33.7zm-163.2 0c-18.6 0-33.7 15.1-33.7 33.7v236.4c0 18.6 15.1 33.7 33.7 33.7s33.7-15.1 33.7-33.7V440.1c0-18.6-15.1-33.7-33.7-33.7z"/></g></svg>