<svg version="1.2" baseProfile="tiny" xmlns="http://www.w3.org/2000/svg" viewBox="0 0 18 18"><g fill="#896352"><path d="M15.5 5.6l-3-4.4c-.2-.3-.7-.4-1-.2-.3.2-.4.7-.2 1l2.5 3.6H4.2L6.7 2c.2-.3.1-.8-.2-1-.3-.2-.8-.1-1 .2l-3 4.4C1.2 5.7.2 6.7.2 8.1c0 .7.3 1.3.7 1.7l1 5.9c0 1 .8 1.7 1.8 1.7h10.6c1 0 1.8-.8 1.8-1.7l1-5.9c.5-.5.7-1.1.7-1.7 0-1.4-1-2.4-2.3-2.5zm.5 3.3l-.2.2-1.1 6.4v.1c0 .2-.2.4-.4.4H3.7c-.2 0-.4-.2-.4-.4L2.2 9.1 2 8.9c-.3-.2-.4-.5-.4-.8 0-.6.5-1.1 1-1.1h12.7c.6 0 1.1.5 1.1 1.1 0 .3-.1.6-.4.8z"/><path d="M12.4 8.9c-.4 0-.7.3-.7.7v5c0 .4.3.7.7.7.4 0 .7-.3.7-.7v-5c0-.4-.3-.7-.7-.7zM9 8.9c-.4 0-.7.3-.7.7v5c0 .4.3.7.7.7.4 0 .7-.3.7-.7v-5c0-.4-.3-.7-.7-.7zm-3.4 0c-.4 0-.7.3-.7.7v5c0 .4.3.7.7.7.4 0 .7-.3.7-.7v-5c0-.4-.3-.7-.7-.7z"/></g></svg>