<svg id="Odnoklassniki" xmlns="http://www.w3.org/2000/svg" viewBox="0 0 30 30"><style>.st0{fill:#fff}</style><path class="st0" d="M24.6 2.3H5.4c-1.8 0-3.2 1.4-3.2 3.2v19.1c0 1.8 1.4 3.2 3.2 3.2h19.1c1.8 0 3.2-1.4 3.2-3.2V5.4c.1-1.8-1.3-3.1-3.1-3.1zM15 10c2.8 0 5.1 2.2 5.1 5 0 2.7-2.3 5-5.1 5s-5.1-2.2-5.1-5 2.3-5 5.1-5zm9.6 13.8c0 .6-.2.8-.8.8H6.2c-.6 0-.8-.2-.8-.8V12.6l2 .4c-.2.7-.3 1.4-.3 2.2 0 4.2 3.5 7.7 7.9 7.7s7.9-3.4 7.9-7.7c0-.8-.1-1.5-.3-2.2l1.9-.4v11.2zm0-14.4c0 .4-.4.8-.8.8h-3.2c-.4 0-.8-.4-.8-.8V6.2c0-.4.4-.8.8-.8h3.2c.4 0 .8.4.8.8v3.2z" id="Flat_copy"/></svg>