<?xml version="1.0" encoding="utf-8"?>
<!-- Generator: Adobe Illustrator 19.0.0, SVG Export Plug-In . SVG Version: 6.00 Build 0)  -->
<svg version="1.2" baseProfile="tiny" id="Layer_1" xmlns="http://www.w3.org/2000/svg" xmlns:xlink="http://www.w3.org/1999/xlink"
	 x="0px" y="0px" viewBox="0 0 1190.6 841.9" xml:space="preserve">
<g>
	<g>
		<g>
			<path fill="#C64C4C" d="M903.9,251.1L760.5,41.4C750,26,729,22.1,713.7,32.6c-15.4,10.5-19.3,31.5-8.8,46.9L822,250.8H368.5
				L485.7,79.5c10.5-15.4,6.6-36.4-8.8-46.9c-15.4-10.5-36.4-6.6-46.9,8.8L286.6,251.1c-62.4,3.2-112.3,54.8-112.3,118
				c0,31.2,12.4,60.7,34.3,82.8l47.5,280.6c1.7,45.8,39.5,82.6,85.7,82.6h506.9c46.2,0,84-36.8,85.7-82.6L981.9,452
				c22-22.1,34.3-51.6,34.3-82.8C1016.2,306,966.4,254.3,903.9,251.1z M929.5,408.6l-10,8l-52,307.2l-0.5,5.6
				c0,10.1-8.2,18.3-18.3,18.3H341.8c-10.1,0-18.3-8.2-18.3-18.3L271,416.6l-10-8c-12.3-9.9-19.3-24.2-19.3-39.4
				c0-28.1,22.8-50.9,50.9-50.9h605.3c28,0,50.9,22.8,50.9,50.9C948.8,384.3,941.7,398.7,929.5,408.6z"/>
			<path fill="#C64C4C" d="M758.5,406.4c-18.6,0-33.7,15.1-33.7,33.7v236.4c0,18.6,15.1,33.7,33.7,33.7s33.7-15.1,33.7-33.7V440.1
				C792.2,421.5,777.1,406.4,758.5,406.4z"/>
			<path fill="#C64C4C" d="M595.3,406.4c-18.6,0-33.7,15.1-33.7,33.7v236.4c0,18.6,15.1,33.7,33.7,33.7c18.6,0,33.7-15.1,33.7-33.7
				V440.1C629,421.5,613.9,406.4,595.3,406.4z"/>
			<path fill="#C64C4C" d="M432.1,406.4c-18.6,0-33.7,15.1-33.7,33.7v236.4c0,18.6,15.1,33.7,33.7,33.7s33.7-15.1,33.7-33.7V440.1
				C465.8,421.5,450.7,406.4,432.1,406.4z"/>
		</g>
	</g>
</g>
</svg>
