<?xml version="1.0" encoding="utf-8"?>
<!-- Generator: Adobe Illustrator 19.0.0, SVG Export Plug-In . SVG Version: 6.00 Build 0)  -->
<svg version="1.2" baseProfile="tiny" id="Слой_1"
	 xmlns="http://www.w3.org/2000/svg" xmlns:xlink="http://www.w3.org/1999/xlink" x="0px" y="0px" viewBox="0 0 18 18"
	 xml:space="preserve">
<g id="XMLID_2_">
	<g id="XMLID_3_">
		<g id="XMLID_4_">
			<path id="XMLID_8_" fill="#896352" d="M15.5,5.6l-3-4.4c-0.2-0.3-0.7-0.4-1-0.2c-0.3,0.2-0.4,0.7-0.2,1l2.5,3.6H4.2L6.7,2
				c0.2-0.3,0.1-0.8-0.2-1c-0.3-0.2-0.8-0.1-1,0.2l-3,4.4C1.2,5.7,0.2,6.7,0.2,8.1c0,0.7,0.3,1.3,0.7,1.7l1,5.9c0,1,0.8,1.7,1.8,1.7
				h10.6c1,0,1.8-0.8,1.8-1.7l1-5.9c0.5-0.5,0.7-1.1,0.7-1.7C17.8,6.7,16.8,5.7,15.5,5.6z M16,8.9l-0.2,0.2l-1.1,6.4l0,0.1
				c0,0.2-0.2,0.4-0.4,0.4H3.7c-0.2,0-0.4-0.2-0.4-0.4L2.2,9.1L2,8.9C1.7,8.7,1.6,8.4,1.6,8.1C1.6,7.5,2.1,7,2.6,7h12.7
				c0.6,0,1.1,0.5,1.1,1.1C16.4,8.4,16.3,8.7,16,8.9z"/>
			<path id="XMLID_7_" fill="#896352" d="M12.4,8.9c-0.4,0-0.7,0.3-0.7,0.7v5c0,0.4,0.3,0.7,0.7,0.7c0.4,0,0.7-0.3,0.7-0.7v-5
				C13.1,9.2,12.8,8.9,12.4,8.9z"/>
			<path id="XMLID_6_" fill="#896352" d="M9,8.9c-0.4,0-0.7,0.3-0.7,0.7v5c0,0.4,0.3,0.7,0.7,0.7c0.4,0,0.7-0.3,0.7-0.7v-5
				C9.7,9.2,9.4,8.9,9,8.9z"/>
			<path id="XMLID_5_" fill="#896352" d="M5.6,8.9c-0.4,0-0.7,0.3-0.7,0.7v5c0,0.4,0.3,0.7,0.7,0.7c0.4,0,0.7-0.3,0.7-0.7v-5
				C6.3,9.2,6,8.9,5.6,8.9z"/>
		</g>
	</g>
</g>
</svg>
