<?xml version="1.0" encoding="utf-8"?>
<!-- Generator: Adobe Illustrator 19.0.0, SVG Export Plug-In . SVG Version: 6.00 Build 0)  -->
<svg version="1.1" id="Odnoklassniki" xmlns="http://www.w3.org/2000/svg" xmlns:xlink="http://www.w3.org/1999/xlink" x="0px"
	 y="0px" viewBox="0 0 30 30" style="enable-background:new 0 0 30 30;" xml:space="preserve">
<style type="text/css">
	.st0{fill:#FFFFFF;}
</style>
<g id="Flat_copy">
	<path class="st0" d="M24.6,2.3H5.4c-1.8,0-3.2,1.4-3.2,3.2v19.1c0,1.8,1.4,3.2,3.2,3.2h19.1c1.8,0,3.2-1.4,3.2-3.2V5.4
		C27.8,3.6,26.4,2.3,24.6,2.3z M15,10c2.8,0,5.1,2.2,5.1,5c0,2.7-2.3,5-5.1,5c-2.8,0-5.1-2.2-5.1-5C9.9,12.2,12.2,10,15,10z
		 M24.6,23.8c0,0.6-0.2,0.8-0.8,0.8H6.2c-0.6,0-0.8-0.2-0.8-0.8V12.6l2,0.4c-0.2,0.7-0.3,1.4-0.3,2.2c0,4.2,3.5,7.7,7.9,7.7
		c4.4,0,7.9-3.4,7.9-7.7c0-0.8-0.1-1.5-0.3-2.2l1.9-0.4V23.8z M24.6,9.4c0,0.4-0.4,0.8-0.8,0.8h-3.2c-0.4,0-0.8-0.4-0.8-0.8V6.2
		c0-0.4,0.4-0.8,0.8-0.8h3.2c0.4,0,0.8,0.4,0.8,0.8V9.4z"/>
</g>
</svg>
