<?xml version="1.0" encoding="utf-8"?>
<!-- Generator: Adobe Illustrator 19.0.0, SVG Export Plug-In . SVG Version: 6.00 Build 0)  -->
<svg version="1.1" id="Odnoklassniki" xmlns="http://www.w3.org/2000/svg" xmlns:xlink="http://www.w3.org/1999/xlink" x="0px"
	 y="0px" viewBox="0 0 30 30" style="enable-background:new 0 0 30 30;" xml:space="preserve">
<style type="text/css">
	.st0{fill:#FFFFFF;}
</style>
<path id="K" class="st0" d="M22,15c-1,0-3,2-7,2s-6-2-7-2c-1.1,0-2,0.9-2,2c0,1,0.6,1.5,1,1.7c1.2,0.7,5,2.3,5,2.3l-4.3,5.4
	c0,0-0.8,0.9-0.8,1.6c0,1.1,0.9,2,2,2c1,0,1.5-0.7,1.5-0.7S15,24,15,24c0,0,4.5,5.3,4.5,5.3S20,30,21,30c1.1,0,2-0.9,2-2
	c0-0.6-0.8-1.6-0.8-1.6L18,21c0,0,3.8-1.6,5-2.3c0.4-0.3,1-0.7,1-1.7C24,15.9,23.1,15,22,15z"/>
<path id="O" class="st0" d="M15,0c-3.9,0-7,3.1-7,7s3.1,7,7,7c3.9,0,7-3.1,7-7S18.9,0,15,0z M15,10.5c-1.9,0-3.5-1.6-3.5-3.5
	c0-1.9,1.6-3.5,3.5-3.5c1.9,0,3.5,1.6,3.5,3.5C18.5,8.9,16.9,10.5,15,10.5z"/>
</svg>
