<?xml version="1.0" encoding="utf-8"?>
<!-- Generator: Adobe Illustrator 19.0.0, SVG Export Plug-In . SVG Version: 6.00 Build 0)  -->
<svg version="1.2" baseProfile="tiny" id="Слой_1"
	 xmlns="http://www.w3.org/2000/svg" xmlns:xlink="http://www.w3.org/1999/xlink" x="0px" y="0px" viewBox="0 0 13 20"
	 xml:space="preserve">
<path fill="#472F23" d="M11.4-0.1H7.8H5.2H1.6C0.7-0.1,0,0.6,0,1.5v6.3v11.5c0,0.8,0.6,1.5,1.4,1.6c0.1,0,0.2,0,0.3,0h9.8
	c0.1,0,0.2,0,0.3,0c0.8-0.1,1.4-0.8,1.4-1.6V7.9V1.5C13.1,0.6,12.3-0.1,11.4-0.1z M6.5,18c0.6,0,1,0.5,1,1c0,0.6-0.5,1-1,1
	c-0.6,0-1-0.5-1-1C5.5,18.5,5.9,18,6.5,18z M2.2,17.3c-0.2,0-0.3-0.2-0.3-0.3V7.4c0,0,0,0,0,0V2c0-0.2,0.2-0.3,0.3-0.3h3.1h2.6h3.1
	c0.2,0,0.3,0.2,0.3,0.3v5.4l0,0V17c0,0.2-0.2,0.3-0.3,0.3H2.2z"/>
</svg>
