<?xml version="1.0" encoding="utf-8"?>
<!-- Generator: Adobe Illustrator 19.0.0, SVG Export Plug-In . SVG Version: 6.00 Build 0)  -->
<svg version="1.2" baseProfile="tiny" id="Слой_1"
	 xmlns="http://www.w3.org/2000/svg" xmlns:xlink="http://www.w3.org/1999/xlink" x="0px" y="0px" viewBox="0 0 18 18"
	 xml:space="preserve">
<path id="XMLID_2_" fill="#FFFFFF" d="M16.1,15.2l-3.6-3.8c0.9-1.1,1.4-2.5,1.4-3.9c0-3.4-2.7-6.1-6.1-6.1S1.7,4.2,1.7,7.5
	s2.7,6.1,6.1,6.1c1.3,0,2.5-0.4,3.5-1.1l3.6,3.8c0.2,0.2,0.4,0.2,0.6,0.2c0.2,0,0.4-0.1,0.6-0.2C16.4,16.1,16.4,15.6,16.1,15.2z
	 M7.8,3c2.5,0,4.5,2,4.5,4.5s-2,4.5-4.5,4.5s-4.5-2-4.5-4.5S5.3,3,7.8,3z"/>
</svg>
