<?xml version="1.0" encoding="utf-8"?>
<!-- Generator: Adobe Illustrator 19.0.0, SVG Export Plug-In . SVG Version: 6.00 Build 0)  -->
<svg version="1.1" id="Слой_1" xmlns="http://www.w3.org/2000/svg" xmlns:xlink="http://www.w3.org/1999/xlink" x="0px" y="0px"
	 viewBox="-8 4 18 18" style="enable-background:new -8 4 18 18;" xml:space="preserve">
<style type="text/css">
	.st0{fill:#C0C0C0;}
</style>
<path id="XMLID_2_" class="st0" d="M8.1,19.2l-3.6-3.8c0.9-1.1,1.4-2.5,1.4-3.9c0-3.4-2.7-6.1-6.1-6.1s-6.1,2.8-6.1,6.1
	s2.7,6.1,6.1,6.1c1.3,0,2.5-0.4,3.5-1.1l3.6,3.8c0.2,0.2,0.4,0.2,0.6,0.2c0.2,0,0.4-0.1,0.6-0.2C8.4,20.1,8.4,19.6,8.1,19.2z
	 M-0.2,7c2.5,0,4.5,2,4.5,4.5S2.3,16-0.2,16s-4.5-2-4.5-4.5S-2.7,7-0.2,7z"/>
</svg>
